<mxfile host="app.diagrams.net" modified="2023-10-18T17:42:30.598Z" agent="Mozilla/5.0 (X11; Linux x86_64; rv:109.0) Gecko/20100101 Firefox/114.0" etag="XNd2tc6aJ_ZGQovT4-Kv" version="22.0.4" type="github">
  <diagram name="PÃ¡gina-1" id="3rt9o08_EEZjVEnaxzIQ">
    <mxGraphModel dx="321" dy="1242" grid="1" gridSize="10" guides="1" tooltips="1" connect="1" arrows="1" fold="1" page="1" pageScale="1" pageWidth="1169" pageHeight="827" math="0" shadow="0">
      <root>
        <mxCell id="0" />
        <mxCell id="1" parent="0" />
        <mxCell id="zfdqlGUJjaQnBxxot2W5-1" value="Empresa" style="whiteSpace=wrap;html=1;align=center;fillColor=#dae8fc;strokeColor=#6c8ebf;" vertex="1" parent="1">
          <mxGeometry x="240" y="120" width="100" height="40" as="geometry" />
        </mxCell>
        <mxCell id="zfdqlGUJjaQnBxxot2W5-2" value="Cliente" style="whiteSpace=wrap;html=1;align=center;fillColor=#dae8fc;strokeColor=#6c8ebf;" vertex="1" parent="1">
          <mxGeometry x="140" y="340" width="100" height="40" as="geometry" />
        </mxCell>
        <mxCell id="zfdqlGUJjaQnBxxot2W5-3" value="Proveedor" style="whiteSpace=wrap;html=1;align=center;fillColor=#dae8fc;strokeColor=#6c8ebf;" vertex="1" parent="1">
          <mxGeometry x="340" y="340" width="100" height="40" as="geometry" />
        </mxCell>
        <mxCell id="zfdqlGUJjaQnBxxot2W5-30" style="edgeStyle=orthogonalEdgeStyle;rounded=0;orthogonalLoop=1;jettySize=auto;html=1;entryX=0.5;entryY=1;entryDx=0;entryDy=0;endArrow=none;endFill=0;exitX=0;exitY=0;exitDx=0;exitDy=0;" edge="1" parent="1" source="zfdqlGUJjaQnBxxot2W5-4" target="zfdqlGUJjaQnBxxot2W5-26">
          <mxGeometry relative="1" as="geometry">
            <Array as="points">
              <mxPoint x="190" y="787" />
            </Array>
          </mxGeometry>
        </mxCell>
        <mxCell id="zfdqlGUJjaQnBxxot2W5-4" value="Producto" style="whiteSpace=wrap;html=1;align=center;fillColor=#dae8fc;strokeColor=#6c8ebf;" vertex="1" parent="1">
          <mxGeometry x="250" y="787" width="100" height="40" as="geometry" />
        </mxCell>
        <mxCell id="zfdqlGUJjaQnBxxot2W5-7" value="" style="triangle;whiteSpace=wrap;html=1;rotation=90;fillColor=#d5e8d4;strokeColor=#82b366;" vertex="1" parent="1">
          <mxGeometry x="260" y="190" width="60" height="80" as="geometry" />
        </mxCell>
        <mxCell id="zfdqlGUJjaQnBxxot2W5-8" value="" style="ellipse;whiteSpace=wrap;html=1;" vertex="1" parent="1">
          <mxGeometry x="280" y="170" width="20" height="20" as="geometry" />
        </mxCell>
        <mxCell id="zfdqlGUJjaQnBxxot2W5-9" value="es" style="text;html=1;strokeColor=none;fillColor=none;align=center;verticalAlign=middle;whiteSpace=wrap;rounded=0;" vertex="1" parent="1">
          <mxGeometry x="260" y="215" width="60" height="30" as="geometry" />
        </mxCell>
        <mxCell id="zfdqlGUJjaQnBxxot2W5-10" style="edgeStyle=orthogonalEdgeStyle;rounded=0;orthogonalLoop=1;jettySize=auto;html=1;entryX=0.328;entryY=0.977;entryDx=0;entryDy=0;entryPerimeter=0;endArrow=none;endFill=0;exitX=0.5;exitY=0;exitDx=0;exitDy=0;" edge="1" parent="1" source="zfdqlGUJjaQnBxxot2W5-2" target="zfdqlGUJjaQnBxxot2W5-9">
          <mxGeometry relative="1" as="geometry">
            <Array as="points">
              <mxPoint x="190" y="260" />
              <mxPoint x="280" y="260" />
            </Array>
          </mxGeometry>
        </mxCell>
        <mxCell id="zfdqlGUJjaQnBxxot2W5-11" style="edgeStyle=orthogonalEdgeStyle;rounded=0;orthogonalLoop=1;jettySize=auto;html=1;entryX=0.677;entryY=1;entryDx=0;entryDy=0;entryPerimeter=0;endArrow=none;endFill=0;" edge="1" parent="1" source="zfdqlGUJjaQnBxxot2W5-3" target="zfdqlGUJjaQnBxxot2W5-9">
          <mxGeometry relative="1" as="geometry">
            <Array as="points">
              <mxPoint x="390" y="260" />
              <mxPoint x="301" y="260" />
            </Array>
          </mxGeometry>
        </mxCell>
        <mxCell id="zfdqlGUJjaQnBxxot2W5-12" value="" style="curved=1;endArrow=none;html=1;rounded=0;endFill=0;" edge="1" parent="1">
          <mxGeometry width="50" height="50" relative="1" as="geometry">
            <mxPoint x="240" y="240" as="sourcePoint" />
            <mxPoint x="350" y="240" as="targetPoint" />
            <Array as="points">
              <mxPoint x="260" y="290" />
              <mxPoint x="330" y="285" />
            </Array>
          </mxGeometry>
        </mxCell>
        <mxCell id="zfdqlGUJjaQnBxxot2W5-13" value="NIF" style="ellipse;whiteSpace=wrap;html=1;align=center;fontStyle=4;" vertex="1" parent="1">
          <mxGeometry x="240" y="64" width="100" height="30" as="geometry" />
        </mxCell>
        <mxCell id="zfdqlGUJjaQnBxxot2W5-32" style="edgeStyle=orthogonalEdgeStyle;rounded=0;orthogonalLoop=1;jettySize=auto;html=1;entryX=0;entryY=0.25;entryDx=0;entryDy=0;endArrow=none;endFill=0;" edge="1" parent="1" source="zfdqlGUJjaQnBxxot2W5-14" target="zfdqlGUJjaQnBxxot2W5-1">
          <mxGeometry relative="1" as="geometry">
            <Array as="points">
              <mxPoint x="220" y="49" />
              <mxPoint x="220" y="130" />
            </Array>
          </mxGeometry>
        </mxCell>
        <mxCell id="zfdqlGUJjaQnBxxot2W5-14" value="direccion" style="ellipse;whiteSpace=wrap;html=1;align=center;" vertex="1" parent="1">
          <mxGeometry x="240" y="34" width="100" height="30" as="geometry" />
        </mxCell>
        <mxCell id="zfdqlGUJjaQnBxxot2W5-33" style="edgeStyle=orthogonalEdgeStyle;rounded=0;orthogonalLoop=1;jettySize=auto;html=1;entryX=0;entryY=0.5;entryDx=0;entryDy=0;endArrow=none;endFill=0;" edge="1" parent="1" source="zfdqlGUJjaQnBxxot2W5-15" target="zfdqlGUJjaQnBxxot2W5-1">
          <mxGeometry relative="1" as="geometry">
            <Array as="points">
              <mxPoint x="210" y="19" />
              <mxPoint x="210" y="140" />
            </Array>
          </mxGeometry>
        </mxCell>
        <mxCell id="zfdqlGUJjaQnBxxot2W5-15" value="poblacion" style="ellipse;whiteSpace=wrap;html=1;align=center;" vertex="1" parent="1">
          <mxGeometry x="240" y="4" width="100" height="30" as="geometry" />
        </mxCell>
        <mxCell id="zfdqlGUJjaQnBxxot2W5-34" style="edgeStyle=orthogonalEdgeStyle;rounded=0;orthogonalLoop=1;jettySize=auto;html=1;entryX=0;entryY=0.75;entryDx=0;entryDy=0;endArrow=none;endFill=0;" edge="1" parent="1" source="zfdqlGUJjaQnBxxot2W5-16" target="zfdqlGUJjaQnBxxot2W5-1">
          <mxGeometry relative="1" as="geometry">
            <Array as="points">
              <mxPoint x="200" y="-11" />
              <mxPoint x="200" y="150" />
            </Array>
          </mxGeometry>
        </mxCell>
        <mxCell id="zfdqlGUJjaQnBxxot2W5-16" value="telefono" style="ellipse;whiteSpace=wrap;html=1;align=center;" vertex="1" parent="1">
          <mxGeometry x="240" y="-26" width="100" height="30" as="geometry" />
        </mxCell>
        <mxCell id="zfdqlGUJjaQnBxxot2W5-35" style="edgeStyle=orthogonalEdgeStyle;rounded=0;orthogonalLoop=1;jettySize=auto;html=1;entryX=0;entryY=1;entryDx=0;entryDy=0;endArrow=none;endFill=0;" edge="1" parent="1" source="zfdqlGUJjaQnBxxot2W5-17" target="zfdqlGUJjaQnBxxot2W5-1">
          <mxGeometry relative="1" as="geometry">
            <Array as="points">
              <mxPoint x="190" y="-41" />
              <mxPoint x="190" y="160" />
            </Array>
          </mxGeometry>
        </mxCell>
        <mxCell id="zfdqlGUJjaQnBxxot2W5-17" value="fax" style="ellipse;whiteSpace=wrap;html=1;align=center;" vertex="1" parent="1">
          <mxGeometry x="240" y="-56" width="100" height="30" as="geometry" />
        </mxCell>
        <mxCell id="zfdqlGUJjaQnBxxot2W5-38" style="edgeStyle=orthogonalEdgeStyle;rounded=0;orthogonalLoop=1;jettySize=auto;html=1;entryX=0;entryY=0.5;entryDx=0;entryDy=0;endArrow=none;endFill=0;" edge="1" parent="1" source="zfdqlGUJjaQnBxxot2W5-18" target="zfdqlGUJjaQnBxxot2W5-2">
          <mxGeometry relative="1" as="geometry" />
        </mxCell>
        <mxCell id="zfdqlGUJjaQnBxxot2W5-18" value="provincia" style="ellipse;whiteSpace=wrap;html=1;align=center;" vertex="1" parent="1">
          <mxGeometry y="306" width="100" height="30" as="geometry" />
        </mxCell>
        <mxCell id="zfdqlGUJjaQnBxxot2W5-37" style="edgeStyle=orthogonalEdgeStyle;rounded=0;orthogonalLoop=1;jettySize=auto;html=1;entryX=0;entryY=0.75;entryDx=0;entryDy=0;endArrow=none;endFill=0;" edge="1" parent="1" source="zfdqlGUJjaQnBxxot2W5-19" target="zfdqlGUJjaQnBxxot2W5-2">
          <mxGeometry relative="1" as="geometry">
            <Array as="points">
              <mxPoint x="110" y="340" />
              <mxPoint x="110" y="370" />
            </Array>
          </mxGeometry>
        </mxCell>
        <mxCell id="zfdqlGUJjaQnBxxot2W5-19" value="comunidad autonoma" style="ellipse;whiteSpace=wrap;html=1;align=center;" vertex="1" parent="1">
          <mxGeometry y="336" width="100" height="30" as="geometry" />
        </mxCell>
        <mxCell id="zfdqlGUJjaQnBxxot2W5-36" style="edgeStyle=orthogonalEdgeStyle;rounded=0;orthogonalLoop=1;jettySize=auto;html=1;entryX=0;entryY=1;entryDx=0;entryDy=0;endArrow=none;endFill=0;" edge="1" parent="1" source="zfdqlGUJjaQnBxxot2W5-20" target="zfdqlGUJjaQnBxxot2W5-2">
          <mxGeometry relative="1" as="geometry">
            <Array as="points">
              <mxPoint x="110" y="380" />
              <mxPoint x="110" y="380" />
            </Array>
          </mxGeometry>
        </mxCell>
        <mxCell id="zfdqlGUJjaQnBxxot2W5-20" value="portes" style="ellipse;whiteSpace=wrap;html=1;align=center;" vertex="1" parent="1">
          <mxGeometry y="366" width="100" height="30" as="geometry" />
        </mxCell>
        <mxCell id="zfdqlGUJjaQnBxxot2W5-41" style="edgeStyle=orthogonalEdgeStyle;rounded=0;orthogonalLoop=1;jettySize=auto;html=1;entryX=1;entryY=0.5;entryDx=0;entryDy=0;endArrow=none;endFill=0;" edge="1" parent="1" source="zfdqlGUJjaQnBxxot2W5-21" target="zfdqlGUJjaQnBxxot2W5-3">
          <mxGeometry relative="1" as="geometry">
            <Array as="points">
              <mxPoint x="460" y="320" />
              <mxPoint x="460" y="360" />
            </Array>
          </mxGeometry>
        </mxCell>
        <mxCell id="zfdqlGUJjaQnBxxot2W5-21" value="contacto" style="ellipse;whiteSpace=wrap;html=1;align=center;" vertex="1" parent="1">
          <mxGeometry x="475" y="305" width="100" height="30" as="geometry" />
        </mxCell>
        <mxCell id="zfdqlGUJjaQnBxxot2W5-22" value="CIF" style="ellipse;whiteSpace=wrap;html=1;align=center;" vertex="1" parent="1">
          <mxGeometry x="475" y="335" width="100" height="30" as="geometry" />
        </mxCell>
        <mxCell id="zfdqlGUJjaQnBxxot2W5-39" style="edgeStyle=orthogonalEdgeStyle;rounded=0;orthogonalLoop=1;jettySize=auto;html=1;entryX=1;entryY=1;entryDx=0;entryDy=0;endArrow=none;endFill=0;" edge="1" parent="1" source="zfdqlGUJjaQnBxxot2W5-23" target="zfdqlGUJjaQnBxxot2W5-3">
          <mxGeometry relative="1" as="geometry">
            <Array as="points">
              <mxPoint x="450" y="380" />
              <mxPoint x="450" y="380" />
            </Array>
          </mxGeometry>
        </mxCell>
        <mxCell id="zfdqlGUJjaQnBxxot2W5-23" value="pais" style="ellipse;whiteSpace=wrap;html=1;align=center;" vertex="1" parent="1">
          <mxGeometry x="475" y="365" width="100" height="30" as="geometry" />
        </mxCell>
        <mxCell id="zfdqlGUJjaQnBxxot2W5-27" style="edgeStyle=orthogonalEdgeStyle;rounded=0;orthogonalLoop=1;jettySize=auto;html=1;entryX=0.5;entryY=1;entryDx=0;entryDy=0;endArrow=none;endFill=0;" edge="1" parent="1" source="zfdqlGUJjaQnBxxot2W5-25" target="zfdqlGUJjaQnBxxot2W5-3">
          <mxGeometry relative="1" as="geometry" />
        </mxCell>
        <mxCell id="zfdqlGUJjaQnBxxot2W5-29" style="edgeStyle=orthogonalEdgeStyle;rounded=0;orthogonalLoop=1;jettySize=auto;html=1;entryX=1;entryY=0;entryDx=0;entryDy=0;endArrow=none;endFill=0;exitX=0.5;exitY=1;exitDx=0;exitDy=0;" edge="1" parent="1" source="zfdqlGUJjaQnBxxot2W5-25" target="zfdqlGUJjaQnBxxot2W5-4">
          <mxGeometry relative="1" as="geometry">
            <Array as="points">
              <mxPoint x="390" y="787" />
            </Array>
          </mxGeometry>
        </mxCell>
        <mxCell id="zfdqlGUJjaQnBxxot2W5-25" value="Prov-Prod" style="rhombus;whiteSpace=wrap;html=1;fillColor=#d5e8d4;strokeColor=#82b366;" vertex="1" parent="1">
          <mxGeometry x="350" y="530" width="80" height="80" as="geometry" />
        </mxCell>
        <mxCell id="zfdqlGUJjaQnBxxot2W5-28" style="edgeStyle=orthogonalEdgeStyle;rounded=0;orthogonalLoop=1;jettySize=auto;html=1;entryX=0.5;entryY=1;entryDx=0;entryDy=0;endArrow=none;endFill=0;" edge="1" parent="1" source="zfdqlGUJjaQnBxxot2W5-26" target="zfdqlGUJjaQnBxxot2W5-2">
          <mxGeometry relative="1" as="geometry" />
        </mxCell>
        <mxCell id="zfdqlGUJjaQnBxxot2W5-26" value="C-Prod" style="rhombus;whiteSpace=wrap;html=1;fillColor=#d5e8d4;strokeColor=#82b366;" vertex="1" parent="1">
          <mxGeometry x="150" y="530" width="80" height="80" as="geometry" />
        </mxCell>
        <mxCell id="zfdqlGUJjaQnBxxot2W5-31" style="edgeStyle=orthogonalEdgeStyle;rounded=0;orthogonalLoop=1;jettySize=auto;html=1;entryX=-0.004;entryY=0.013;entryDx=0;entryDy=0;entryPerimeter=0;endArrow=none;endFill=0;" edge="1" parent="1" source="zfdqlGUJjaQnBxxot2W5-13" target="zfdqlGUJjaQnBxxot2W5-1">
          <mxGeometry relative="1" as="geometry">
            <Array as="points">
              <mxPoint x="230" y="79" />
              <mxPoint x="230" y="120" />
              <mxPoint x="240" y="120" />
            </Array>
          </mxGeometry>
        </mxCell>
        <mxCell id="zfdqlGUJjaQnBxxot2W5-40" style="edgeStyle=orthogonalEdgeStyle;rounded=0;orthogonalLoop=1;jettySize=auto;html=1;endArrow=none;endFill=0;" edge="1" parent="1" source="zfdqlGUJjaQnBxxot2W5-22">
          <mxGeometry relative="1" as="geometry">
            <mxPoint x="440" y="370" as="targetPoint" />
            <Array as="points">
              <mxPoint x="470" y="350" />
              <mxPoint x="470" y="370" />
            </Array>
          </mxGeometry>
        </mxCell>
        <mxCell id="zfdqlGUJjaQnBxxot2W5-48" style="edgeStyle=orthogonalEdgeStyle;rounded=0;orthogonalLoop=1;jettySize=auto;html=1;entryX=0;entryY=1;entryDx=0;entryDy=0;endArrow=none;endFill=0;" edge="1" parent="1" source="zfdqlGUJjaQnBxxot2W5-43" target="zfdqlGUJjaQnBxxot2W5-4">
          <mxGeometry relative="1" as="geometry">
            <Array as="points">
              <mxPoint x="240" y="864" />
              <mxPoint x="240" y="827" />
            </Array>
          </mxGeometry>
        </mxCell>
        <mxCell id="zfdqlGUJjaQnBxxot2W5-43" value="codigo" style="ellipse;whiteSpace=wrap;html=1;align=center;fontStyle=4;" vertex="1" parent="1">
          <mxGeometry x="250" y="849" width="100" height="30" as="geometry" />
        </mxCell>
        <mxCell id="zfdqlGUJjaQnBxxot2W5-49" style="edgeStyle=orthogonalEdgeStyle;rounded=0;orthogonalLoop=1;jettySize=auto;html=1;entryX=0;entryY=0.75;entryDx=0;entryDy=0;endArrow=none;endFill=0;" edge="1" parent="1" source="zfdqlGUJjaQnBxxot2W5-46" target="zfdqlGUJjaQnBxxot2W5-4">
          <mxGeometry relative="1" as="geometry">
            <Array as="points">
              <mxPoint x="230" y="894" />
              <mxPoint x="230" y="817" />
            </Array>
          </mxGeometry>
        </mxCell>
        <mxCell id="zfdqlGUJjaQnBxxot2W5-46" value="descripcion" style="ellipse;whiteSpace=wrap;html=1;align=center;" vertex="1" parent="1">
          <mxGeometry x="250" y="879" width="100" height="30" as="geometry" />
        </mxCell>
        <mxCell id="zfdqlGUJjaQnBxxot2W5-47" value="precio" style="ellipse;whiteSpace=wrap;html=1;align=center;" vertex="1" parent="1">
          <mxGeometry x="250" y="909" width="100" height="30" as="geometry" />
        </mxCell>
        <mxCell id="zfdqlGUJjaQnBxxot2W5-50" style="edgeStyle=orthogonalEdgeStyle;rounded=0;orthogonalLoop=1;jettySize=auto;html=1;entryX=0;entryY=0.5;entryDx=0;entryDy=0;endArrow=none;endFill=0;" edge="1" parent="1" source="zfdqlGUJjaQnBxxot2W5-47" target="zfdqlGUJjaQnBxxot2W5-4">
          <mxGeometry relative="1" as="geometry">
            <Array as="points">
              <mxPoint x="220" y="924" />
              <mxPoint x="220" y="807" />
            </Array>
          </mxGeometry>
        </mxCell>
        <mxCell id="zfdqlGUJjaQnBxxot2W5-51" value="fecha" style="ellipse;whiteSpace=wrap;html=1;align=center;" vertex="1" parent="1">
          <mxGeometry x="10" y="525" width="100" height="30" as="geometry" />
        </mxCell>
        <mxCell id="zfdqlGUJjaQnBxxot2W5-65" style="edgeStyle=orthogonalEdgeStyle;rounded=0;orthogonalLoop=1;jettySize=auto;html=1;entryX=0;entryY=0.5;entryDx=0;entryDy=0;endArrow=none;endFill=0;" edge="1" parent="1" source="zfdqlGUJjaQnBxxot2W5-52" target="zfdqlGUJjaQnBxxot2W5-26">
          <mxGeometry relative="1" as="geometry" />
        </mxCell>
        <mxCell id="zfdqlGUJjaQnBxxot2W5-52" value="cantidad" style="ellipse;whiteSpace=wrap;html=1;align=center;" vertex="1" parent="1">
          <mxGeometry x="10" y="555" width="100" height="30" as="geometry" />
        </mxCell>
        <mxCell id="zfdqlGUJjaQnBxxot2W5-53" value="tipo" style="ellipse;whiteSpace=wrap;html=1;align=center;" vertex="1" parent="1">
          <mxGeometry x="360" y="200" width="60" height="15" as="geometry" />
        </mxCell>
        <mxCell id="zfdqlGUJjaQnBxxot2W5-54" style="edgeStyle=orthogonalEdgeStyle;rounded=0;orthogonalLoop=1;jettySize=auto;html=1;entryX=0.122;entryY=0.057;entryDx=0;entryDy=0;entryPerimeter=0;endArrow=none;endFill=0;" edge="1" parent="1" source="zfdqlGUJjaQnBxxot2W5-53" target="zfdqlGUJjaQnBxxot2W5-7">
          <mxGeometry relative="1" as="geometry" />
        </mxCell>
        <mxCell id="zfdqlGUJjaQnBxxot2W5-55" value="reacargo" style="ellipse;whiteSpace=wrap;html=1;align=center;" vertex="1" parent="1">
          <mxGeometry x="10" y="585" width="100" height="30" as="geometry" />
        </mxCell>
        <mxCell id="zfdqlGUJjaQnBxxot2W5-56" value="(1,1)" style="text;html=1;strokeColor=none;fillColor=none;align=center;verticalAlign=middle;whiteSpace=wrap;rounded=0;" vertex="1" parent="1">
          <mxGeometry x="220" y="160" width="60" height="30" as="geometry" />
        </mxCell>
        <mxCell id="zfdqlGUJjaQnBxxot2W5-57" value="(0,1)" style="text;html=1;strokeColor=none;fillColor=none;align=center;verticalAlign=middle;whiteSpace=wrap;rounded=0;" vertex="1" parent="1">
          <mxGeometry x="140" y="310" width="60" height="30" as="geometry" />
        </mxCell>
        <mxCell id="zfdqlGUJjaQnBxxot2W5-58" value="(0,1)" style="text;html=1;strokeColor=none;fillColor=none;align=center;verticalAlign=middle;whiteSpace=wrap;rounded=0;" vertex="1" parent="1">
          <mxGeometry x="330" y="310" width="60" height="30" as="geometry" />
        </mxCell>
        <mxCell id="zfdqlGUJjaQnBxxot2W5-59" value="(1,1)" style="text;html=1;strokeColor=none;fillColor=none;align=center;verticalAlign=middle;whiteSpace=wrap;rounded=0;" vertex="1" parent="1">
          <mxGeometry x="330" y="380" width="60" height="30" as="geometry" />
        </mxCell>
        <mxCell id="zfdqlGUJjaQnBxxot2W5-60" value="(0,1)" style="text;html=1;strokeColor=none;fillColor=none;align=center;verticalAlign=middle;whiteSpace=wrap;rounded=0;" vertex="1" parent="1">
          <mxGeometry x="330" y="757" width="60" height="30" as="geometry" />
        </mxCell>
        <mxCell id="zfdqlGUJjaQnBxxot2W5-61" value="1:1" style="text;html=1;strokeColor=none;fillColor=none;align=center;verticalAlign=middle;whiteSpace=wrap;rounded=0;" vertex="1" parent="1">
          <mxGeometry x="305" y="555" width="60" height="30" as="geometry" />
        </mxCell>
        <mxCell id="zfdqlGUJjaQnBxxot2W5-62" value="(0,n)" style="text;html=1;strokeColor=none;fillColor=none;align=center;verticalAlign=middle;whiteSpace=wrap;rounded=0;" vertex="1" parent="1">
          <mxGeometry x="190" y="757" width="60" height="30" as="geometry" />
        </mxCell>
        <mxCell id="zfdqlGUJjaQnBxxot2W5-63" value="(1,1)" style="text;html=1;strokeColor=none;fillColor=none;align=center;verticalAlign=middle;whiteSpace=wrap;rounded=0;" vertex="1" parent="1">
          <mxGeometry x="190" y="380" width="60" height="30" as="geometry" />
        </mxCell>
        <mxCell id="zfdqlGUJjaQnBxxot2W5-64" value="1:N" style="text;html=1;strokeColor=none;fillColor=none;align=center;verticalAlign=middle;whiteSpace=wrap;rounded=0;" vertex="1" parent="1">
          <mxGeometry x="217" y="555" width="60" height="30" as="geometry" />
        </mxCell>
        <mxCell id="zfdqlGUJjaQnBxxot2W5-66" style="edgeStyle=orthogonalEdgeStyle;rounded=0;orthogonalLoop=1;jettySize=auto;html=1;entryX=0.125;entryY=0.625;entryDx=0;entryDy=0;entryPerimeter=0;endArrow=none;endFill=0;" edge="1" parent="1" source="zfdqlGUJjaQnBxxot2W5-55" target="zfdqlGUJjaQnBxxot2W5-26">
          <mxGeometry relative="1" as="geometry" />
        </mxCell>
        <mxCell id="zfdqlGUJjaQnBxxot2W5-67" style="edgeStyle=orthogonalEdgeStyle;rounded=0;orthogonalLoop=1;jettySize=auto;html=1;entryX=0.113;entryY=0.382;entryDx=0;entryDy=0;entryPerimeter=0;endArrow=none;endFill=0;" edge="1" parent="1" source="zfdqlGUJjaQnBxxot2W5-51" target="zfdqlGUJjaQnBxxot2W5-26">
          <mxGeometry relative="1" as="geometry" />
        </mxCell>
      </root>
    </mxGraphModel>
  </diagram>
</mxfile>
